<!-- Generator: Adobe Illustrator 19.1.0, SVG Export Plug-In  -->
<svg version="1.1"
	 xmlns="http://www.w3.org/2000/svg" xmlns:xlink="http://www.w3.org/1999/xlink" xmlns:a="http://ns.adobe.com/AdobeSVGViewerExtensions/3.0/"
	 x="0px" y="0px" width="132.1px" height="130.7px" viewBox="0 0 132.1 130.7" enable-background="new 0 0 132.1 130.7"
	 xml:space="preserve">
<defs>
</defs>
<g>
	<path fill="#EB6B24" d="M97.1,31.4V17.7l4.1,0.8v-7.9L51.3,0.1V0L0,10.8v7.9l6-1.1v107.5l45.1,5.5l8.1-1.1v-24l12.6-0.7V128
		l7.8-0.9v-22.8l11.3-0.7v22.1l6.2-0.7l31.8-3.8V42.4l3.1,0.4v-6.2L97.1,31.4z M40.4,37.8l7.8-0.9v6.5l-7.8,0.8V37.8z M9.3,41.5
		l6.5-0.8v6l-6.5,0.6V41.5z M15.8,97.6l-6.5-0.3v-5.8l6.5,0.2V97.6z M15.8,87.3l-6.5-0.1v-5.8l6.5,0V87.3z M15.9,77.2l-6.5,0.1v-5.9
		l6.5-0.2V77.2z M15.9,67.2l-6.5,0.3v-5.8l6.5-0.4V67.2z M15.9,56.8l-6.5,0.5v-5.9l6.5-0.6V56.8z M15.9,36.7l-6.6,0.8v-5.8l6.6-0.9
		V36.7z M15.9,27.1l-6.6,1v-5.8l6.6-1.1V27.1z M19.3,40.2l7-0.8v6.1l-7,0.7V40.2z M26.3,97.9l-6.9-0.3v-6l6.9,0.2V97.9z M26.3,87.3
		l-6.9-0.1v-6l6.9,0V87.3z M26.3,76.9L19.4,77v-6l6.9-0.2V76.9z M26.3,66.6l-6.9,0.3v-6l6.9-0.4V66.6z M26.3,55.8l-6.9,0.5v-6
		l6.9-0.6V55.8z M26.4,35.2l-6.9,0.9v-6l6.9-1V35.2z M26.4,25.3l-6.9,1.1v-6l6.9-1.2V25.3z M29.5,39l7.3-0.8v6.3l-7.3,0.7V39z
		 M36.8,98.4l-7.3-0.3v-6.2l7.3,0.2V98.4z M36.8,87.4l-7.3-0.1v-6.2l7.3,0V87.4z M36.9,76.8l-7.4,0.1v-6.2l7.4-0.2V76.8z M36.9,66.2
		l-7.4,0.3v-6.2l7.4-0.4V66.2z M36.9,55.1l-7.4,0.5v-6.2l7.4-0.6V55.1z M37,33.9l-7.4,0.9v-6.2l7.4-1.1V33.9z M37,23.7l-7.4,1.1
		v-6.2l7.4-1.3V23.7z M48.2,98.9l-7.8-0.3v-6.3l7.8,0.2V98.9z M48.2,87.6l-7.8-0.1v-6.4l7.8,0V87.6z M48.3,76.6l-7.8,0.1v-6.4
		l7.8-0.2V76.6z M48.3,65.7l-7.8,0.3v-6.4l7.8-0.5V65.7z M48.3,54.3l-7.8,0.6v-6.4l7.8-0.7V54.3z M48.3,32.5l-7.8,1v-6.4l7.8-1.1
		V32.5z M48.3,22l-7.8,1.2v-6.4l7.8-1.3V22z M87.2,30.4l6.5,0.9v6.1l-6.5-0.8V30.4z M87.2,50.8l6.5,0.6v6.1L87.2,57V50.8z
		 M77.3,28.8l6.9,1v6.3l-6.9-0.9V28.8z M77.3,49.7l6.9,0.6v6.3l-6.9-0.5V49.7z M67,27.3l7.3,1v6.5L67,33.9V27.3z M67,48.8l7.3,0.6
		v6.5L67,55.4V48.8z M55.3,25.5l7.7,1.1v6.7l-7.7-1V25.5z M63.1,37.6v6.7l-7.7-0.8v-6.8L63.1,37.6z M55.3,47.6l7.7,0.7V55l-7.7-0.5
		V47.6z M62.9,98.7L55.2,99v-6.8l7.7-0.2V98.7z M63,87.8l-7.7,0.1v-6.8l7.7,0V87.8z M63.1,76.6l-7.7-0.1v-6.8l7.7,0.3V76.6z
		 M63.2,66l-7.7-0.3v-6.8l7.7,0.5V66z M63.3,22.7l-7.7-1.2v-6.8l7.7,1.3V22.7z M74,98.3l-7.3,0.3V92l7.3-0.2V98.3z M74.2,87.7
		l-7.3,0.1v-6.6l7.3,0V87.7z M74.2,76.9l-7.3-0.1v-6.6l7.3,0.3V76.9z M74.3,66.5l-7.2-0.3v-6.6l7.2,0.5V66.5z M74.3,45.5l-7.2-0.7
		v-6.6l7.2,0.9V45.5z M74.3,24.4l-7.2-1.1v-6.6l7.2,1.2V24.4z M83.8,97.9l-6.9,0.3v-6.4l6.9-0.2V97.9z M84.1,87.6l-6.9,0.1v-6.4
		l6.9,0V87.6z M84.1,77.1L77.2,77v-6.4l6.9,0.2V77.1z M84.2,66.9l-6.9-0.3v-6.4l6.9,0.4V66.9z M84.3,46.5l-6.9-0.7v-6.4l6.9,0.8
		V46.5z M84.3,26l-6.9-1.1v-6.4l6.9,1.2V26z M93.6,97.6l-6.5,0.3v-6.2l6.5-0.2V97.6z M93.7,87.6l-6.5,0.1v-6.2l6.5,0V87.6z
		 M93.7,77.3l-6.5-0.1V71l6.5,0.2V77.3z M93.8,67.5l-6.5-0.3V61l6.5,0.4V67.5z M93.9,47.6L87.4,47v-6.2l6.5,0.8V47.6z M93.9,27.6
		l-6.5-1v-6.2l6.5,1.1V27.6z M119.9,53.7l5.4,0.5v5.6l-5.4-0.4V53.7z M111.8,52.9l5.7,0.6v5.7l-5.7-0.5V52.9z M102.9,42.3l6,0.8V49
		l-6-0.7V42.3z M102.8,51.9l6,0.6v5.9l-6-0.5V51.9z M108.7,96.9l-6,0.2v-6l6-0.1V96.9z M108.8,87.3l-6,0v-6l6,0.1V87.3z M108.8,77.5
		l-6-0.2v-6l6,0.3V77.5z M108.9,68.1l-5.9-0.3v-6l5.9,0.4V68.1z M117.4,96.7l-5.7,0.2v-5.8l5.7-0.1V96.7z M117.4,87.3l-5.6,0v-5.8
		l5.6,0.1V87.3z M117.4,77.8l-5.6-0.2v-5.8l5.6,0.2V77.8z M117.5,68.6l-5.6-0.3v-5.8l5.6,0.4V68.6z M117.6,50l-5.7-0.6v-5.8l5.7,0.7
		V50z M125,96.5l-5.4,0.2V91l5.4-0.1V96.5z M125.2,87.3l-5.4,0v-5.7l5.4,0.1V87.3z M125.2,78l-5.4-0.1v-5.7l5.4,0.2V78z M125.3,69
		l-5.4-0.3V63l5.4,0.4V69z M125.4,50.9l-5.4-0.6v-5.7l5.4,0.7V50.9z M125.4,50.9"/>
</g>
</svg>
