<!-- Generator: Adobe Illustrator 19.1.0, SVG Export Plug-In  -->
<svg version="1.1"
	 xmlns="http://www.w3.org/2000/svg" xmlns:xlink="http://www.w3.org/1999/xlink" xmlns:a="http://ns.adobe.com/AdobeSVGViewerExtensions/3.0/"
	 x="0px" y="0px" width="135.9px" height="140.9px" viewBox="0 0 135.9 140.9" enable-background="new 0 0 135.9 140.9"
	 xml:space="preserve">
<defs>
</defs>
<g>
	<path fill="#EB6B24" d="M133.4,17.6H67.9V2.5c0-1.4-1.1-2.5-2.5-2.5H40.3c-1.4,0-2.5,1.1-2.5,2.5v9.9c0,0.1,0,0.2,0,0.3v4.9H2.5
		c-1.4,0-2.5,1.1-2.5,2.5v20.1c0,1.4,1.1,2.5,2.5,2.5h12.6v67.9H7.5c-1.4,0-2.5,1.1-2.5,2.5v10.1H2.5c-1.4,0-2.5,1.1-2.5,2.5v12.6
		c0,1.4,1.1,2.5,2.5,2.5h30.2c1.4,0,2.5-1.1,2.5-2.5v-12.6c0-1.4-1.1-2.5-2.5-2.5h-2.5v-10.1c0-1.4-1.1-2.5-2.5-2.5h-7.6V42.8h17.6
		v17.5c0,0.1,0,0.2,0,0.3v24.9c0,0.1,0,0.2,0,0.3v24.8c0,0.1,0,0.1,0,0.2c0,0,0,0.1,0,0.2v24.8c0,0.1,0,0.2,0,0.3v2.3
		c0,1.4,1.1,2.5,2.5,2.5h25.2c1.4,0,2.5-1.1,2.5-2.5V42.8h45.3v30.3h0c0,1.3,1.1,2.4,2.5,2.4c4.2,0,7.5,3.4,7.5,7.5
		c0,4.2-3.4,7.6-7.5,7.6c-4.2,0-7.6-3.4-7.6-7.6c0-1.4-1.1-2.5-2.5-2.5c-1.4,0-2.5,1.1-2.5,2.5c0,6.9,5.6,12.6,12.6,12.6
		c6.9,0,12.6-5.6,12.6-12.6c0-6.1-4.3-11.2-10.1-12.3V42.8h15.1c1.4,0,2.5-1.1,2.5-2.5V20.1C135.9,18.7,134.8,17.6,133.4,17.6
		L133.4,17.6z M30.2,135.9H5v-7.5h25.2V135.9z M25.2,115.7v7.5H10.1v-7.5H25.2z M42.8,20.1v-1.4l6.5,6.5l-6.5,6.5V20.1z M62.9,20.1
		v11.6l-6.5-6.5l6.5-6.5V20.1z M60.6,36.5l-7.8,7.8l-7.8-7.8l7.8-7.8L60.6,36.5z M42.8,41.3l6.5,6.5l-6.5,6.5V41.3z M52.8,51.4l9,9
		l-9,9l-9-9L52.8,51.4z M49.3,73l-6.5,6.5v-13L49.3,73z M52.8,76.6l9,9l-9,9l-9-9L52.8,76.6z M49.3,98.2l-6.5,6.5v-13L49.3,98.2z
		 M52.8,101.8l9,9l-9,9l-9-9L52.8,101.8z M49.3,123.4l-6.5,6.5v-13L49.3,123.4z M52.8,126.9l8.9,8.9H43.9L52.8,126.9z M56.4,123.4
		l6.5-6.5v13L56.4,123.4z M56.4,98.2l6.5-6.5v13L56.4,98.2z M56.4,73l6.5-6.5v13L56.4,73z M56.4,47.8l6.5-6.5v13L56.4,47.8z M62.9,5
		v6.5L52.8,21.6l-10-10V5H62.9z M5,22.6h32.7v12.4c0,0.1,0,0.2,0,0.3v2.2c0,0.1,0,0.1,0,0.1H5V22.6z M130.8,37.7H67.9V22.6h62.9
		V37.7z M130.8,37.7"/>
</g>
</svg>
