<!-- Generator: Adobe Illustrator 19.1.0, SVG Export Plug-In  -->
<svg version="1.1"
	 xmlns="http://www.w3.org/2000/svg" xmlns:xlink="http://www.w3.org/1999/xlink" xmlns:a="http://ns.adobe.com/AdobeSVGViewerExtensions/3.0/"
	 x="0px" y="0px" width="117.9px" height="14.2px" viewBox="0 0 117.9 14.2" enable-background="new 0 0 117.9 14.2"
	 xml:space="preserve">
<defs>
</defs>
<g>
	<path fill="#F36D45" d="M15.6,6.2l-3.1-5.3C12.2,0.4,11.5,0,11,0H4.8C4.3,0,3.6,0.4,3.3,0.9L0.2,6.2c-0.3,0.5-0.3,1.3,0,1.8
		l3.1,5.3c0.3,0.5,1,0.9,1.5,0.9H11c0.6,0,1.3-0.4,1.5-0.9l1-1.7l-2-2.5l0,2.4h-0.8l0-3.9h0.5l2,2.4l0-2.4H14v3L15.6,8
		C15.9,7.5,15.9,6.7,15.6,6.2 M5.7,11.6l0-3.9h0.8l0,3.9H5.7z M8.5,11.7c-0.4,0-1.1-0.1-1.3-0.2v-0.7C7.4,10.9,8,11,8.5,11
		c0.7,0,0.9-0.2,0.9-0.5c0-0.3-0.2-0.4-0.8-0.5C7.5,9.9,7.1,9.6,7.1,8.9c0-0.7,0.4-1.3,1.6-1.3c0.4,0,0.9,0,1.3,0.2v0.7
		C9.6,8.5,9.2,8.4,8.7,8.4c-0.6,0-0.9,0.2-0.9,0.5c0,0.3,0.2,0.3,0.8,0.4c1.1,0.1,1.5,0.4,1.5,1.2C10.2,11.2,9.8,11.7,8.5,11.7"/>
	<path fill="#F36D45" d="M14.7,11.1c0.2,0,0.4,0.2,0.4,0.4c0,0.2-0.2,0.4-0.4,0.4c-0.2,0-0.4-0.2-0.4-0.4
		C14.3,11.2,14.5,11.1,14.7,11.1 M14.7,11.8c0.2,0,0.3-0.1,0.3-0.3c0-0.2-0.1-0.3-0.3-0.3c-0.2,0-0.3,0.1-0.3,0.3
		C14.4,11.6,14.5,11.8,14.7,11.8 M14.6,11.2h0.2c0.1,0,0.2,0,0.2,0.1c0,0.1,0,0.1-0.1,0.1l0.1,0.2h-0.1l-0.1-0.2h-0.1v0.2h-0.1V11.2
		z M14.7,11.4L14.7,11.4c0.1,0,0.2,0,0.2-0.1c0-0.1-0.1-0.1-0.1-0.1h-0.1V11.4z"/>
</g>
<g>
	<path fill="#FFFFFF" d="M19.5,12.8V8.3h0.7v4.5H19.5z"/>
	<path fill="#FFFFFF" d="M24,11.4c0,0.9-0.5,1.4-1.7,1.4c-0.5,0-1-0.1-1.3-0.3v-0.7c0.2,0.1,0.7,0.3,1.3,0.3c0.8,0,1-0.3,1-0.8
		c0-0.5-0.2-0.6-0.8-0.7c-1.1-0.1-1.5-0.4-1.5-1.3c0-0.7,0.4-1.3,1.6-1.3c0.6,0,1,0.1,1.2,0.2v0.7c-0.3-0.1-0.7-0.2-1.2-0.2
		c-0.7,0-0.9,0.3-0.9,0.7c0,0.5,0.3,0.6,0.9,0.6C23.4,10.3,24,10.5,24,11.4z"/>
	<path fill="#FFFFFF" d="M27.2,12.8l-2-3.2l0,3.2h-0.7V8.3h0.6l2,3.2l0-3.2h0.7v4.5H27.2z"/>
	<path fill="#FFFFFF" d="M31.1,10.7h-1.9v1.4h2.1v0.6h-2.7V8.3h2.7v0.6h-2.1v1.2h1.9V10.7z"/>
	<path fill="#FFFFFF" d="M33.6,8.9v3.9h-0.7V8.9h-1.2V8.3h3v0.6H33.6z"/>
	<path fill="#FFFFFF" d="M37.1,8.3H38l0.8,3.5l0.6-3.5H40l-0.8,4.6h-0.8l-0.8-3.7l-0.8,3.7h-0.8l-0.8-4.6h0.7l0.6,3.5L37.1,8.3z"/>
	<path fill="#FFFFFF" d="M40.5,10.5c0-1.3,0.3-2.3,1.7-2.3s1.7,1,1.7,2.3s-0.3,2.3-1.7,2.3S40.5,11.8,40.5,10.5z M41.2,10.5
		c0,1.1,0.2,1.7,1,1.7s1-0.6,1-1.7s-0.2-1.7-1-1.7S41.2,9.4,41.2,10.5z"/>
	<path fill="#FFFFFF" d="M45.3,12.8h-0.7V8.3h1.5c1.2,0,1.5,0.5,1.5,1.3c0,0.6-0.2,1-0.7,1.2l0.9,2h-0.8l-0.8-1.8h-0.9V12.8z
		 M45.3,10.3h0.9c0.6,0,0.7-0.4,0.7-0.7c0-0.4-0.1-0.7-0.7-0.7h-0.9V10.3z"/>
	<path fill="#FFFFFF" d="M49,12.1h2v0.6h-2.6V8.3H49V12.1z"/>
	<path fill="#FFFFFF" d="M51.5,12.8V8.3h1.3c1.5,0,1.9,1,1.9,2.2s-0.4,2.2-1.9,2.2H51.5z M52.2,12.1h0.7c0.9,0,1.2-0.7,1.2-1.6
		s-0.3-1.6-1.2-1.6h-0.7V12.1z"/>
	<path fill="#FFFFFF" d="M59,12.1h-0.6l-1.1-2.8l0,3.4h-0.7V8.3h0.9l1.2,3.1l1.2-3.1h0.9v4.5h-0.7l0-3.4L59,12.1z"/>
	<path fill="#FFFFFF" d="M64,10.7h-1.9v1.4h2.1v0.6h-2.7V8.3h2.7v0.6h-2.1v1.2H64V10.7z"/>
	<path fill="#FFFFFF" d="M67.3,12.1h-0.6l-1.1-2.8l0,3.4h-0.7V8.3h0.9l1.2,3.1l1.2-3.1h0.9v4.5h-0.7l0-3.4L67.3,12.1z"/>
	<path fill="#FFFFFF" d="M69.8,8.3h1.5c1.1,0,1.4,0.5,1.4,1.2c0,0.4-0.2,0.7-0.5,0.9c0.4,0.1,0.7,0.5,0.7,1.1c0,0.7-0.4,1.3-1.5,1.3
		h-1.5V8.3z M71.3,8.9h-0.9v1.3h0.9c0.5,0,0.7-0.3,0.7-0.6C72,9.2,71.9,8.9,71.3,8.9z M70.5,12.1h0.9c0.6,0,0.8-0.3,0.8-0.7
		c0-0.5-0.2-0.7-0.8-0.7h-0.9V12.1z"/>
	<path fill="#FFFFFF" d="M76,10.7h-1.9v1.4h2.1v0.6h-2.7V8.3h2.7v0.6h-2.1v1.2H76V10.7z"/>
	<path fill="#FFFFFF" d="M77.5,12.8h-0.7V8.3h1.5c1.2,0,1.5,0.5,1.5,1.3c0,0.6-0.2,1-0.7,1.2l0.9,2h-0.8l-0.8-1.8h-0.9V12.8z
		 M77.5,10.3h0.9c0.6,0,0.7-0.4,0.7-0.7c0-0.4-0.1-0.7-0.7-0.7h-0.9V10.3z"/>
	<path fill="#FFFFFF" d="M83.5,8.2c0.5,0,0.8,0.1,1.1,0.2V9c-0.3-0.1-0.6-0.2-1-0.2c-0.9,0-1.2,0.6-1.2,1.7s0.3,1.7,1.2,1.7
		c0.4,0,0.7-0.1,1-0.2v0.6c-0.2,0.1-0.5,0.2-1.1,0.2c-1.3,0-1.9-0.8-1.9-2.3C81.7,9,82.2,8.2,83.5,8.2z"/>
	<path fill="#FFFFFF" d="M85.2,10.5c0-1.3,0.3-2.3,1.7-2.3s1.7,1,1.7,2.3s-0.3,2.3-1.7,2.3S85.2,11.8,85.2,10.5z M85.9,10.5
		c0,1.1,0.2,1.7,1,1.7s1-0.6,1-1.7s-0.2-1.7-1-1.7S85.9,9.4,85.9,10.5z"/>
	<path fill="#FFFFFF" d="M92,12.8l-2-3.2l0,3.2h-0.7V8.3H90l2,3.2l0-3.2h0.7v4.5H92z"/>
	<path fill="#FFFFFF" d="M94.9,8.9v3.9h-0.7V8.9h-1.2V8.3h3v0.6H94.9z"/>
	<path fill="#FFFFFF" d="M97.3,12.8h-0.7V8.3h1.5c1.2,0,1.5,0.5,1.5,1.3c0,0.6-0.2,1-0.7,1.2l0.9,2h-0.8l-0.8-1.8h-0.9V12.8z
		 M97.3,10.3h0.9c0.6,0,0.7-0.4,0.7-0.7c0-0.4-0.1-0.7-0.7-0.7h-0.9V10.3z"/>
	<path fill="#FFFFFF" d="M102.6,11.7h-1.4l-0.3,1.1h-0.7l1.4-4.6h0.7l1.4,4.6H103L102.6,11.7z M101.9,9.1l-0.6,2h1.2L101.9,9.1z"/>
	<path fill="#FFFFFF" d="M105.9,8.2c0.5,0,0.8,0.1,1.1,0.2V9c-0.3-0.1-0.6-0.2-1-0.2c-0.9,0-1.2,0.6-1.2,1.7s0.3,1.7,1.2,1.7
		c0.4,0,0.7-0.1,1-0.2v0.6c-0.2,0.1-0.5,0.2-1.1,0.2c-1.3,0-1.9-0.8-1.9-2.3C104,9,104.5,8.2,105.9,8.2z"/>
	<path fill="#FFFFFF" d="M109.1,8.9v3.9h-0.7V8.9h-1.2V8.3h3v0.6H109.1z"/>
	<path fill="#FFFFFF" d="M110.6,10.5c0-1.3,0.3-2.3,1.7-2.3s1.7,1,1.7,2.3s-0.3,2.3-1.7,2.3S110.6,11.8,110.6,10.5z M111.3,10.5
		c0,1.1,0.2,1.7,1,1.7s1-0.6,1-1.7s-0.2-1.7-1-1.7S111.3,9.4,111.3,10.5z"/>
	<path fill="#FFFFFF" d="M115.4,12.8h-0.7V8.3h1.5c1.2,0,1.5,0.5,1.5,1.3c0,0.6-0.2,1-0.7,1.2l0.9,2h-0.8l-0.8-1.8h-0.9V12.8z
		 M115.4,10.3h0.9c0.6,0,0.7-0.4,0.7-0.7c0-0.4-0.1-0.7-0.7-0.7h-0.9V10.3z"/>
</g>
</svg>
