<svg version="1.1"
  xmlns="http://www.w3.org/2000/svg" xmlns:xlink="http://www.w3.org/1999/xlink" xmlns:a="http://ns.adobe.com/AdobeSVGViewerExtensions/3.0/"
  x="0px" y="0px" width="57.1px" height="57.1px" viewBox="0 0 57.1 57.1" enable-background="new 0 0 57.1 57.1"
  xml:space="preserve">
<defs>
</defs>
<g>
  <g>
    <path fill="#FFFFFF" d="M28.6,0c15.8,0,28.6,12.8,28.6,28.6c0,15.8-12.8,28.6-28.6,28.6C12.8,57.1,0,44.3,0,28.6
      C0,12.8,12.8,0,28.6,0 M3.8,35.2l0.6,2l1,0.5l1.2-0.4l-0.4-1.2l-0.8,0.2l-0.4-0.2l-0.2-0.7L5,35.3l3.4-1.1l0.4,0.2L9,35.1
      l-0.2,0.4l-0.7,0.2l0.4,1.2l1.2-0.4l0.5-1l-0.6-2l-1-0.5l-4.2,1.3L3.8,35.2z M6.2,41.3l1.2,1.9l1.1,0.3l3.8-2.4l0.3-1.1L11.3,38
      l-1.1-0.3l-3.8,2.4L6.2,41.3z M7.4,41.3l0.1-0.4l3-1.9l0.4,0.1l0.4,0.7l-0.1,0.4l-3,1.9L7.8,42L7.4,41.3z M9.8,46.3l0.8,0.7
      l3.3-3.9l-2.5,4.6l1,0.9l4.1-3.2l-3.3,3.9l0.9,0.7l3.9-4.6l-1.4-1.2l-3.9,3.1l2.4-4.3l-1.4-1.2L9.8,46.3z M16.8,51.4l1.1,0.5
      l0.9-2l1.6,0.7l1-0.4l0.9-2.1l-0.4-1l-2.8-1.2L16.8,51.4z M19.1,49.1l0.8-1.9l1,0.4l0.1,0.4l-0.6,1.4l-0.3,0.1L19.1,49.1z
      M22.2,53.5l1.1,0.2l0.5-1.3l1.4,0.2l0,1.4l1.2,0.2L26.2,48l-1.8-0.3L22.2,53.5z M25.1,48.6l0,3.1l-1.1-0.2L25.1,48.6z M29,54.3
      l1.1-0.1l-0.4-3.8l2,3.6l1.1-0.1l-0.6-6L31.2,48l0.4,3.7l-2-3.6l-1.1,0.1L29,54.3z M36.8,52.8l1.1-0.4l-0.6-1.7l-0.1-4.5l-1.1,0.4
      l0.2,3l-1.8-2.4l-1.2,0.5l2.8,3.4L36.8,52.8z M40.8,51.4l0.6-0.3l0.2-0.6l-0.9-1.6l-1,0.6l0.6,1.1l0.4-0.2l0.2,0.3l0,0.1l-0.3,0.2
      L40.8,51.4z M46.3,47l2-2.1l-0.7-0.7l-1.2,1.2L42.7,42l-0.8,0.9L46.3,47z M49.8,42.8l1.5-2.5l-0.9-0.5l-0.9,1.5l-4.3-2.6l-0.6,1
      L49.8,42.8z M52.6,37.2l0.6-2l-0.5-1l-1.2-0.4L51.2,35l0.8,0.2l0.2,0.4l-0.2,0.7l-0.4,0.2l-3.4-1.1l-0.2-0.4l0.2-0.7l0.4-0.2
      l0.7,0.2l0.4-1.2l-1.2-0.4l-1,0.5l-0.6,2l0.5,1l4.2,1.3L52.6,37.2z M9.8,28.6c0-10.3,8.4-18.7,18.7-18.7
      c10.3,0,18.7,8.4,18.7,18.7c0,0,0,0,0,0.1h8.3c0,0,0,0,0-0.1c0-14.9-12.1-27.1-27.1-27.1C13.6,1.5,1.5,13.6,1.5,28.6
      c0,0,0,0,0,0.1L9.8,28.6C9.8,28.6,9.8,28.6,9.8,28.6 M32.5,11.9l-4,2.7l-4-2.6c-7.5,1.8-13,8.6-13,16.6c0,8,5.6,14.8,13,16.6
      l4-2.6l4,2.7c7.5-1.8,13.2-8.6,13.2-16.6C45.7,20.5,40,13.7,32.5,11.9"/>
    <path fill="#FFFFFF" d="M21.6,39.6l-0.2-4.3h-1.9l-0.4,4.3H17l2.3-22.3h2.6l2.2,22.3H21.6z M20.5,22.7l-0.9,10.1h1.5L20.5,22.7z"
      />
    <path fill="#FFFFFF" d="M28.9,32.2h-1.1v7.4h-2.4V17.2h3.4c1.3,0,3,0.7,3,3.5v7.9C31.9,31.5,30.2,32.2,28.9,32.2 M29.6,20.7
      c0-0.8-0.3-1.1-0.7-1.1h-1V30h1c0.4,0,0.7-0.3,0.7-1.1V20.7z"/>
    <path fill="#FFFFFF" d="M37.1,39.8c-1.8,0-3.4-1.5-3.4-3.8V20.8c0-2.2,1.5-3.8,3.4-3.8c1.9,0,3.1,1.6,3.1,3.8V25h-2v-4.5
      c0-0.6-0.3-1.1-1-1.1c-0.7,0-1.1,0.5-1.1,1.1v15.7c0,0.6,0.3,1.1,1.1,1.1c0.7,0,1-0.5,1-1.1v-4.5h2V36
      C40.2,38.3,39,39.8,37.1,39.8"/>
    <polygon fill="#FFFFFF" points="8,25.5 3.8,24.5 3.2,23.5 3.7,21.2 4.7,20.6 6,20.9 5.6,22.3 4.9,22.2 4.7,22.3 4.5,22.9
      4.7,23.2 7.8,24 8.1,23.8 8.2,23.2 8.1,22.9 7.3,22.8 7.7,21.3 8.9,21.6 9.5,22.6 9,24.9 		"/>
    <path fill="#FFFFFF" d="M9.3,20.6l-3.8-2l-0.3-1.1l1.2-2.1L7.5,15l3.8,2l0.3,1.1l-1.2,2.1L9.3,20.6z M10.2,18.4L10.1,18l-2.8-1.5
      l-0.3,0.1l-0.3,0.6l0.1,0.3L9.5,19L9.8,19L10.2,18.4z"/>
    <polygon fill="#FFFFFF" points="8.2,12.5 9.1,11.5 12.5,12.7 10.1,10.5 11,9.5 15.4,13.6 14.4,14.6 11,13.4 13.5,15.6 12.6,16.6
          "/>
    <polygon fill="#FFFFFF" points="15.8,12.2 15.2,11.2 16.5,10.5 16.8,10.9 17.1,11 17.7,10.6 17.7,10.3 17.3,9.6 17,9.5 15.6,10.5
      14.7,10.3 13.5,8.5 13.8,7.3 15.8,6.1 16.9,6.3 17.5,7.2 16.3,8 16,7.6 15.7,7.5 15.1,7.9 15.1,8.1 15.5,8.9 15.7,8.9 17.2,8
      18.1,8.2 19.3,10 19,11.1 16.9,12.4 		"/>
    <polygon fill="#FFFFFF" points="19.7,5.6 18.5,6.1 18.1,4.9 21.9,3.5 22.3,4.7 21.1,5.2 22.7,9.6 21.3,10.1 		"/>
    <path fill="#FFFFFF" d="M24,3.1l3.3-0.3l0.9,0.7l0.2,2l-0.6,0.7l1,2.4l-1.5,0.1l-0.9-2.2l-0.6,0.1l0.2,2.3L24.6,9L24,3.1z
      M26.7,5.4l0.2-0.2l-0.1-1.1l-0.2-0.2l-1,0.1l0.1,1.5L26.7,5.4z"/>
    <polygon fill="#FFFFFF" points="29.8,7.8 30.6,2.7 32,3 31.3,7.4 31.5,7.7 32.1,7.8 32.4,7.6 33.1,3.1 34.5,3.4 33.7,8.4
      32.8,9.1 30.5,8.8 		"/>
    <polygon fill="#FFFFFF" points="34.9,8.8 36.6,4.8 37.7,4.4 39.9,5.3 40.3,6.4 39.8,7.6 38.4,7 38.7,6.3 38.6,6 38,5.8 37.7,5.9
      36.5,8.9 36.6,9.2 37.2,9.4 37.5,9.3 37.8,8.6 39.1,9.2 38.6,10.4 37.5,10.8 35.3,9.9 		"/>
    <polygon fill="#FFFFFF" points="42.4,8.3 41.4,7.5 42.1,6.5 45.4,8.8 44.6,9.9 43.6,9.1 40.8,12.9 39.7,12.1 		"/>
    <polygon fill="#FFFFFF" points="43.1,13.4 43.6,13.9 46.4,11.4 45.9,10.8 46.7,10.1 48.7,12.3 47.9,13 47.4,12.5 44.6,15
      45.1,15.6 44.3,16.3 42.3,14.1 		"/>
    <path fill="#FFFFFF" d="M45.6,16.7l3.8-2.1l1.1,0.3l1.2,2.1l-0.3,1.1l-3.8,2.1l-1.1-0.3l-1.2-2.1L45.6,16.7z M47.1,18.6l0.3,0.1
      l2.8-1.6l0.1-0.3L50,16.2l-0.3-0.1l-2.8,1.6L46.8,18L47.1,18.6z"/>
    <polygon fill="#FFFFFF" points="53.1,20.1 53.4,21.4 50.7,23.6 53.8,22.8 54.1,24.1 48.4,25.6 48,24.2 50.9,22 47.6,22.9
      47.3,21.6 		"/>
  </g>
</g>
</svg>