<!-- Generator: Adobe Illustrator 19.1.0, SVG Export Plug-In  -->
<svg version="1.1"
	 xmlns="http://www.w3.org/2000/svg" xmlns:xlink="http://www.w3.org/1999/xlink" xmlns:a="http://ns.adobe.com/AdobeSVGViewerExtensions/3.0/"
	 x="0px" y="0px" width="74.6px" height="145.2px" viewBox="0 0 74.6 145.2" enable-background="new 0 0 74.6 145.2"
	 xml:space="preserve">
<defs>
</defs>
<g>
	<g>
		<path fill="#EB6B24" d="M73.1,12.6c-1.6-1.1-3.7-0.7-4.8,0.8l-5.8,8.2l-11.3-8L57,5.4c1.1-1.6,0.7-3.7-0.8-4.8
			c-1.6-1.1-3.7-0.7-4.8,0.8l-5.8,8.2l-2.8-2c-0.7-0.5-1.7-0.7-2.6-0.6c-0.9,0.2-1.7,0.7-2.2,1.4L24.1,28c-2.2,3.1-3,6.8-2.4,10.5
			c0.6,3.7,2.7,7,5.7,9.1l2,1.4L0.7,87.8c-0.8,1-0.9,2.4-0.3,3.6c0.6,1.2,1.8,1.9,3.1,1.9h56.2l-26.8,36l1.3-11.1
			c0.2-1.9-1.1-3.6-3-3.8c-1.9-0.2-3.6,1.1-3.8,3l-2.8,23.9c-0.1,1.2,0.4,2.5,1.4,3.2c0.6,0.4,1.3,0.7,2,0.7c0.5,0,1-0.1,1.4-0.3
			l22.3-10.2c1.7-0.8,2.5-2.8,1.7-4.6c-0.8-1.7-2.8-2.5-4.6-1.7l-10,4.6l30.5-41c0.8-1,0.9-2.4,0.3-3.6c-0.6-1.2-1.8-1.9-3.1-1.9
			H10.3l24.8-33.4l3.2,2.3c3.1,2.2,6.8,3,10.5,2.4c3.7-0.6,7-2.7,9.1-5.7l13.8-19.5c1.1-1.6,0.7-3.7-0.8-4.8l-2.8-2l5.8-8.2
			C75,15.8,74.7,13.7,73.1,12.6L73.1,12.6z M52.4,48c-1.1,1.6-2.8,2.6-4.7,2.9c-1.9,0.3-3.8-0.1-5.4-1.2L31.5,42
			c-1.6-1.1-2.6-2.8-2.9-4.7c-0.3-1.9,0.1-3.8,1.2-5.4l11.8-16.7l22.6,16L52.4,48z M52.4,48"/>
	</g>
</g>
</svg>
